<?xml version="1.0"?>
<svg xmlns="http://www.w3.org/2000/svg" xmlns:xlink="http://www.w3.org/1999/xlink" xmlns:svgjs="http://svgjs.com/svgjs" version="1.1" width="512" height="512" x="0" y="0" viewBox="0 0 512 512" style="enable-background:new 0 0 512 512" xml:space="preserve"><g><g xmlns="http://www.w3.org/2000/svg"><path d="m409.842 115.159c-24.814 0-45-20.186-45-45v-15h-30v15c0 24.814-20.186 45-45 45h-15v30h15c24.814 0 45 20.186 45 45v15h30v-15c0-24.814 20.186-45 45-45h15v-30z" fill="#ffffff" data-original="#000000" style=""/><g><g><g><path d="m461.683 512-81.841-47.476-81.841 47.476 15.894-95.229-66.167-64.585 91.318-13.184 40.767-82.925 40.898 82.954 91.289 13.111-66.211 64.629z" fill="#ffffff" data-original="#000000" style=""/></g></g><path d="m319.109 311.565 13.495-27.454-208.693-284.111v115h-123.911l248.649 206.739z" fill="#ffffff" data-original="#000000" style=""/><path d="m199.842 355.159c-24.814 0-45-20.186-45-45v-15h-30v15c0 24.814-20.186 45-45 45h-15v30h15c24.814 0 45 20.186 45 45v15h30v-15c0-24.814 20.186-45 45-45h15v-30z" fill="#ffffff" data-original="#000000" style=""/></g></g></g></svg>
