<?xml version="1.0"?>
<svg xmlns="http://www.w3.org/2000/svg" xmlns:xlink="http://www.w3.org/1999/xlink" xmlns:svgjs="http://svgjs.com/svgjs" version="1.1" width="512" height="512" x="0" y="0" viewBox="0 0 511.993 511.993" style="enable-background:new 0 0 512 512" xml:space="preserve"><g><path xmlns="http://www.w3.org/2000/svg" d="m306.918 236.089c18.921 0 37.852-3.69 55.891-11.074 36.47-14.927 64.944-43.163 80.178-79.506 3.202-7.64-.395-16.43-8.036-19.632-42.9-17.981-89.587-14.079-127.587 6.578 7.318-45.239-6.418-93.255-41.226-128.062-5.858-5.858-15.355-5.858-21.213 0-27.865 27.864-43.211 64.912-43.211 104.319 0 7.772.606 15.45 1.778 22.986-4.337-2.347-8.814-4.493-13.422-6.425-36.343-15.234-76.442-15.403-112.913-.476-7.667 3.138-11.338 11.897-8.201 19.564 23.353 57.057 78.574 91.649 136.724 91.649 11.629 0 23.379-1.385 35.013-4.251v45.832h-123.732c-13.166 0-25.248 6.041-33.148 16.573s-10.318 23.822-6.633 36.462l7.469 25.62c5.122 17.57 21.48 29.841 39.782 29.841h2.943l13.382 95.408c2.438 17.387 17.516 30.499 35.074 30.499h159.408c17.557 0 32.635-13.111 35.074-30.498l13.381-95.408h2.943c18.301 0 34.66-12.271 39.782-29.84l7.469-25.621c3.685-12.64 1.267-25.93-6.633-36.462s-19.982-16.573-33.148-16.573h-123.411v-46.072c11.914 3.044 24.067 4.569 36.223 4.569zm33.683 241.239c-.373 2.66-2.679 4.665-5.365 4.665h-159.408c-2.686 0-4.992-2.005-5.365-4.665l-12.797-91.241h195.732zm62.651-165.162c2.181 2.907 2.848 6.575 1.831 10.064l-7.469 25.62c-1.414 4.85-5.93 8.237-10.981 8.237h-262.203c-5.051 0-9.566-3.387-10.98-8.237l-7.469-25.62c-1.017-3.489-.35-7.158 1.832-10.064 2.181-2.907 5.515-4.575 9.149-4.575h277.141c3.634 0 6.968 1.668 9.149 4.575zm4.843-163.827c-12.951 21.992-32.623 39.079-56.649 48.912-24.028 9.835-50.031 11.445-74.687 4.842.888-1.503 1.81-2.976 2.757-4.427 1.864-2.463 3.647-4.967 5.336-7.516 28.553-37.006 77.249-54.063 123.243-41.811zm-152.563-110.573c30.041 39.621 31.579 94.079 4.659 135.242-1.546 2.046-3.041 4.142-4.487 6.283-2.127-3.194-4.376-6.292-6.735-9.296-24.923-40.779-22.75-93.567 6.563-132.229zm-95.472 159.106c-23.943-10.036-43.47-27.288-56.235-49.388 44.855-11.544 92.025 4.695 120.555 39.897 2.685 4.243 5.6 8.36 8.732 12.341.535.87 1.078 1.733 1.592 2.62-24.707 6.392-50.701 4.566-74.644-5.47z" fill="#ffffff" data-original="#000000" style=""/></g></svg>
