<?xml version="1.0"?>
<svg xmlns="http://www.w3.org/2000/svg" xmlns:xlink="http://www.w3.org/1999/xlink" xmlns:svgjs="http://svgjs.com/svgjs" version="1.1" width="512" height="512" x="0" y="0" viewBox="0 0 512 512" style="enable-background:new 0 0 512 512" xml:space="preserve" class=""><g><g xmlns="http://www.w3.org/2000/svg"><path d="m271 271.944v-30.944h195.33l-135-241h-150.66l-135 241h195.33v30.944c-34.211 4.323-64.94 23.314-84.146 52.632-21.977 33.547-25.534 75.526-9.515 112.293l32.733 75.131h151.856l32.733-75.131c16.019-36.767 12.462-78.746-9.515-112.293-19.206-29.318-49.935-48.309-84.146-52.632zm-72.749-241.944h115.498l101.39 181h-318.278zm-16.303 311.015c16.415-25.056 44.098-40.015 74.052-40.015s57.637 14.959 74.052 40.015c15.842 24.183 18.865 54.231 8.3 80.985h-164.704c-10.565-26.754-7.542-56.802 8.3-80.985zm17.777 140.985-13.071-30h138.691l-13.071 30z" fill="#ffffff" data-original="#000000" style="" class=""/></g></g></svg>
