<?xml version="1.0"?>
<svg xmlns="http://www.w3.org/2000/svg" xmlns:xlink="http://www.w3.org/1999/xlink" xmlns:svgjs="http://svgjs.com/svgjs" version="1.1" width="512" height="512" x="0" y="0" viewBox="0 0 512 512" style="enable-background:new 0 0 512 512" xml:space="preserve" class=""><g><path xmlns="http://www.w3.org/2000/svg" d="m498.199219 234.613281-13.1875-92.324219h-28.011719v-67.09375c18.246094-2.515624 36.53125-5.570312 54.898438-9.191406l-5.796876-29.433594c-83.46875 16.441407-165.097656 21.097657-249.554687 14.226563-79.457031-6.460937-160.246094-23.078125-246.980469-50.796875l-9.132812 28.574219c18.429687 5.894531 36.601562 11.285156 54.566406 16.207031v68.507812h-28.007812l-13.167969 92.167969c-8.832031 11.847657-13.824219 26.402344-13.824219 41.832031 0 38.597657 31.402344 70 70 70s70-31.402343 70-70c0-15.25-5-29.816406-13.804688-41.699218l-13.1875-92.300782h-28.007812v-60.683593c53.335938 13.195312 104.953125 22.09375 156 26.933593v66.75h-28.007812l-13.167969 92.175782c-8.800781 11.8125-13.824219 26.367187-13.824219 41.824218 0 38.597657 31.402344 70 70 70s70-31.402343 70-70c0-15.171874-5.03125-29.722656-13.789062-41.589843l-13.203126-92.410157h-28.007812v-64.371093c20.195312 1.292969 40.253906 1.949219 60.230469 1.949219 32.046875 0 63.886719-1.6875 95.769531-5.035157v63.457031h-28.007812l-13.167969 92.175782c-8.800781 11.8125-13.824219 26.367187-13.824219 41.824218 0 38.597657 31.402344 70 70 70s70-31.402343 70-70c0-15.273437-5.027344-29.824218-13.800781-41.675781zm-388.199219 12.675781c0 22.054688-17.945312 40-40 40s-40-17.945312-40-40c0-13.988281 7.183594-26.726562 18.9375-34h42.109375c11.722656 7.277344 18.953125 20.144532 18.953125 34zm-23.007812-104 5.710937 40h-45.40625l5.710937-40zm209.007812 137c0 22.054688-17.945312 40-40 40s-40-17.945312-40-40c0-14.046874 7.25-26.785156 18.90625-34h42.148438c11.769531 7.261719 18.945312 19.933594 18.945312 34zm-23.007812-104 5.710937 40h-45.40625l5.710937-40zm152.015624-4h33.980469l5.714844 40h-45.410156zm16.992188 144c-22.054688 0-40-17.945312-40-40 0-14.046874 7.25-26.785156 18.90625-34h42.140625c11.644531 7.234376 18.953125 20.085938 18.953125 34 0 22.054688-17.945312 40-40 40zm0 0" fill="#ffffff" data-original="#000000" style="" class=""/></g></svg>
