<?xml version="1.0"?>
<svg xmlns="http://www.w3.org/2000/svg" xmlns:xlink="http://www.w3.org/1999/xlink" xmlns:svgjs="http://svgjs.com/svgjs" version="1.1" width="512" height="512" x="0" y="0" viewBox="0 0 556.235 556.235" style="enable-background:new 0 0 512 512" xml:space="preserve"><g><path xmlns="http://www.w3.org/2000/svg" d="m556.235 208.588c0-76.801-62.258-139.059-139.059-139.059-.594 0-1.142.168-1.734.174.711 5.701 1.734 11.314 1.734 17.208 0 8.961-.997 17.673-2.618 26.158-12.195-64.353-68.541-113.069-136.44-113.069s-124.246 48.716-136.44 113.07c-1.621-8.485-2.618-17.198-2.618-26.158 0-5.895 1.023-11.507 1.734-17.208-.592-.006-1.139-.174-1.734-.174-76.802-.001-139.06 62.257-139.06 139.058 0 64.689 44.379 118.576 104.207 134.115-11.133 2.898-22.611 4.944-34.678 4.944v139.059c0 38.329 31.183 69.529 69.529 69.529h278.117c38.346 0 69.529-31.2 69.529-69.529v-158.347c41.393-24.089 69.531-68.43 69.531-119.771z" fill="#ffffff" data-original="#000000" style=""/></g></svg>
