<?xml version="1.0" encoding="utf-8"?>
<!-- Generator: Adobe Illustrator 25.0.1, SVG Export Plug-In . SVG Version: 6.00 Build 0)  -->
<svg version="1.1" xmlns="http://www.w3.org/2000/svg" xmlns:xlink="http://www.w3.org/1999/xlink" x="0px" y="0px"
	 viewBox="0 0 512 512" style="enable-background:new 0 0 512 512;" xml:space="preserve">
<style type="text/css">
	.st0{fill:#FFFFFF;}
</style>
<g id="Ebene_2">
</g>
<g id="Ebene_1" xmlns:svgjs="http://svgjs.com/svgjs">
	<g>
		<g>
			<g>
				<g>
					<path class="st0" d="M345.4,65.8c-10.7-4.7-23.1,0.2-27.7,10.9s0.2,23.1,10.9,27.7c68.5,29.9,113.7,97.7,113.7,173.7
						c0,104.6-84.8,189.4-189.4,189.4c-104.6,0-189.4-84.8-189.4-189.4c0-76,45.2-143.7,113.6-173.7c10.7-4.7,15.5-17.1,10.9-27.7
						c-4.7-10.7-17.1-15.5-27.7-10.9C76.6,102.4,21.3,185.2,21.3,278.1c0,127.9,103.7,230.5,231.5,230.5
						c127.9,0,231.5-102.7,231.5-230.5C484.4,185.2,429.1,102.4,345.4,65.8z"/>
					<path class="st0" d="M252.8,236c11.6,0,21-9.4,21-21V25.5c0-11.6-9.4-21-21-21s-21,9.4-21,21v189.4
						C231.8,226.6,241.2,236,252.8,236z"/>
				</g>
			</g>
		</g>
	</g>
</g>
</svg>
