<?xml version="1.0"?>
<svg xmlns="http://www.w3.org/2000/svg" xmlns:xlink="http://www.w3.org/1999/xlink" xmlns:svgjs="http://svgjs.com/svgjs" version="1.1" width="512" height="512" x="0" y="0" viewBox="0 0 448 448" style="enable-background:new 0 0 512 512" xml:space="preserve" class=""><g>
<g xmlns="http://www.w3.org/2000/svg">
	<g>
		<path d="M439.84,210.048l-256-144c-4.96-2.784-11.008-2.72-15.904,0.128C163.008,69.056,160,74.304,160,80v62.592L23.84,66.048    c-4.928-2.752-11.04-2.72-15.904,0.128C3.008,69.056,0,74.304,0,80v288c0,5.696,3.008,10.944,7.936,13.824    C10.432,383.264,13.216,384,16,384c2.688,0,5.408-0.672,7.84-2.048L160,305.408V368c0,5.696,3.008,10.944,7.936,13.824    c4.896,2.848,10.944,2.912,15.936,0.128l256-144c4.992-2.848,8.128-8.16,8.128-13.952S444.864,212.896,439.84,210.048z     M192,340.64v-62.56c0-5.696-3.008-10.944-7.936-13.824c-4.896-2.88-10.944-2.912-15.904-0.128L32,340.672V107.328l136.16,76.544    c4.96,2.784,11.072,2.752,15.904-0.128c4.928-2.88,7.936-8.128,7.936-13.824v-62.56L399.36,224L192,340.64z" fill="#ffffff" data-original="#000000" style="" class=""/>
	</g>
</g>
<g xmlns="http://www.w3.org/2000/svg">
</g>
<g xmlns="http://www.w3.org/2000/svg">
</g>
<g xmlns="http://www.w3.org/2000/svg">
</g>
<g xmlns="http://www.w3.org/2000/svg">
</g>
<g xmlns="http://www.w3.org/2000/svg">
</g>
<g xmlns="http://www.w3.org/2000/svg">
</g>
<g xmlns="http://www.w3.org/2000/svg">
</g>
<g xmlns="http://www.w3.org/2000/svg">
</g>
<g xmlns="http://www.w3.org/2000/svg">
</g>
<g xmlns="http://www.w3.org/2000/svg">
</g>
<g xmlns="http://www.w3.org/2000/svg">
</g>
<g xmlns="http://www.w3.org/2000/svg">
</g>
<g xmlns="http://www.w3.org/2000/svg">
</g>
<g xmlns="http://www.w3.org/2000/svg">
</g>
<g xmlns="http://www.w3.org/2000/svg">
</g>
</g></svg>
