<?xml version="1.0"?>
<svg xmlns="http://www.w3.org/2000/svg" xmlns:xlink="http://www.w3.org/1999/xlink" xmlns:svgjs="http://svgjs.com/svgjs" version="1.1" width="512" height="512" x="0" y="0" viewBox="0 0 448 448" style="enable-background:new 0 0 512 512" xml:space="preserve" class=""><g>
<g xmlns="http://www.w3.org/2000/svg">
	<g>
		<path d="M440.064,66.182c-4.96-2.848-10.976-2.912-15.936-0.128L288,142.598V80.006c0-5.696-3.008-10.944-7.936-13.824    c-4.896-2.848-10.976-2.944-15.904-0.128l-256,144C3.136,212.902,0,218.214,0,224.006s3.136,11.104,8.16,13.952l256,144    c4.96,2.784,11.008,2.72,15.936-0.128c4.896-2.88,7.904-8.128,7.904-13.824v-62.592l136.16,76.544    c2.432,1.376,5.152,2.048,7.84,2.048c2.784,0,5.6-0.736,8.064-2.176c4.928-2.88,7.936-8.128,7.936-13.824v-288    C448,74.31,444.992,69.062,440.064,66.182z M416,340.646l-136.16-76.512c-2.432-1.376-5.152-2.048-7.84-2.048    c-2.784,0-5.6,0.736-8.064,2.176c-4.928,2.88-7.936,8.128-7.936,13.824v62.56L48.64,224.006L256,107.366v62.56    c0,5.696,3.008,10.944,7.936,13.824c4.928,2.848,10.944,2.88,15.936,0.128L416,107.334V340.646z" fill="#ffffff" data-original="#000000" style="" class=""/>
	</g>
</g>
<g xmlns="http://www.w3.org/2000/svg">
</g>
<g xmlns="http://www.w3.org/2000/svg">
</g>
<g xmlns="http://www.w3.org/2000/svg">
</g>
<g xmlns="http://www.w3.org/2000/svg">
</g>
<g xmlns="http://www.w3.org/2000/svg">
</g>
<g xmlns="http://www.w3.org/2000/svg">
</g>
<g xmlns="http://www.w3.org/2000/svg">
</g>
<g xmlns="http://www.w3.org/2000/svg">
</g>
<g xmlns="http://www.w3.org/2000/svg">
</g>
<g xmlns="http://www.w3.org/2000/svg">
</g>
<g xmlns="http://www.w3.org/2000/svg">
</g>
<g xmlns="http://www.w3.org/2000/svg">
</g>
<g xmlns="http://www.w3.org/2000/svg">
</g>
<g xmlns="http://www.w3.org/2000/svg">
</g>
<g xmlns="http://www.w3.org/2000/svg">
</g>
</g></svg>
