<?xml version="1.0"?>
<svg xmlns="http://www.w3.org/2000/svg" xmlns:xlink="http://www.w3.org/1999/xlink" xmlns:svgjs="http://svgjs.com/svgjs" version="1.1" width="512" height="512" x="0" y="0" viewBox="0 0 448.023 448.023" style="enable-background:new 0 0 512 512" xml:space="preserve" class=""><g>
<g xmlns="http://www.w3.org/2000/svg">
	<g>
		<path d="M294.956,1.591c-5.6-2.688-12.128-1.92-16.928,1.92L122.38,128.023H48.012c-17.664,0-32,14.368-32,32v128    c0,17.632,14.336,32,32,32h74.368l155.616,124.512c2.912,2.304,6.464,3.488,10.016,3.488c2.336,0,4.704-0.512,6.944-1.568    c5.536-2.688,9.056-8.288,9.056-14.432v-416C304.012,9.879,300.492,4.279,294.956,1.591z M112.012,288.023h-64v-128h64V288.023z     M272.012,398.711l-128-102.4V151.735l128-102.4V398.711z" fill="#ffffff" data-original="#000000" style="" class=""/>
	</g>
</g>
<g xmlns="http://www.w3.org/2000/svg">
	<g>
		<path d="M385.004,110.871c-6.272-6.208-16.416-6.112-22.624,0.128c-6.208,6.304-6.144,16.416,0.128,22.656    c24.192,23.872,37.504,55.968,37.504,90.368c0,34.4-13.312,66.496-37.504,90.368c-6.272,6.24-6.336,16.352-0.128,22.656    c3.136,3.168,7.264,4.736,11.36,4.736c4.064,0,8.128-1.536,11.264-4.608c30.336-29.92,47.008-70.112,47.008-113.152    C432.012,180.983,415.34,140.791,385.004,110.871z" fill="#ffffff" data-original="#000000" style="" class=""/>
	</g>
</g>
<g xmlns="http://www.w3.org/2000/svg">
</g>
<g xmlns="http://www.w3.org/2000/svg">
</g>
<g xmlns="http://www.w3.org/2000/svg">
</g>
<g xmlns="http://www.w3.org/2000/svg">
</g>
<g xmlns="http://www.w3.org/2000/svg">
</g>
<g xmlns="http://www.w3.org/2000/svg">
</g>
<g xmlns="http://www.w3.org/2000/svg">
</g>
<g xmlns="http://www.w3.org/2000/svg">
</g>
<g xmlns="http://www.w3.org/2000/svg">
</g>
<g xmlns="http://www.w3.org/2000/svg">
</g>
<g xmlns="http://www.w3.org/2000/svg">
</g>
<g xmlns="http://www.w3.org/2000/svg">
</g>
<g xmlns="http://www.w3.org/2000/svg">
</g>
<g xmlns="http://www.w3.org/2000/svg">
</g>
<g xmlns="http://www.w3.org/2000/svg">
</g>
</g></svg>
