<?xml version="1.0" encoding="utf-8"?>
<!-- Generator: Adobe Illustrator 24.3.0, SVG Export Plug-In . SVG Version: 6.00 Build 0)  -->
<svg version="1.1" id="Ebene_1" xmlns="http://www.w3.org/2000/svg" xmlns:xlink="http://www.w3.org/1999/xlink" x="0px" y="0px"
	 viewBox="0 0 364.2 61" style="enable-background:new 0 0 364.2 61;" xml:space="preserve">
<style type="text/css">
	.st0{fill:#FFFFFF;}
	.st1{fill:#5AC4E7;}
</style>
<g id="Ebene_1_1_">
	<path class="st0" d="M70,13.8h10.3v20.5h0.2c0.8-1.9,1.6-3.9,2.4-5.9l6.8-14.6h10.1L88.5,33.6L100,59.5H89.3L82,40.6l-2.2,3.7v15.2
		H70V13.8z"/>
	<path class="st0" d="M105,59.5V13.8h9l7.9,18c1.6,3.4,4,9.4,5.5,13.3h0.2c-0.3-4.8-1-12.8-1-21.2V13.8h8.7v45.7h-9l-7.8-17.3
		c-2-4.4-3.8-8.9-5.2-13.5H113c0.3,4.6,0.7,11.6,0.7,20.6v10.2H105z"/>
	<path class="st0" d="M157.3,60.5c-11.6,0-16.1-11-16.1-23.6s5.5-23.3,16.9-23.3c12.2,0,15.7,12.2,15.7,22.6
		c0,17.2-6.8,24.2-16.4,24.2L157.3,60.5z M157.7,52.8c4.2,0,5.8-6.8,5.8-16.1c0-8.1-1.3-15.3-5.9-15.3c-4.4,0-6.2,7.2-6.1,15.5
		c-0.1,9.1,1.8,15.9,6.1,15.9H157.7z"/>
	<path class="st0" d="M180,14.8c3.4-0.6,6.8-0.9,10.2-0.9c5.8,0,10.4,0.8,13.6,3.5c2.9,2.5,4.4,6.3,4.2,10.1c0,5-1.6,8.5-4.2,11
		c-3.1,3.1-8.1,4.4-12.2,4.4c-0.6,0-1.3,0-1.9,0V60h-9.8V14.8H180z M190.2,35.5c0.5,0,1.1,0,1.6,0c5,0,7.2-3.2,7.2-7.5
		c0-4-1.8-7.1-6.4-7.1c-0.8,0-1.6,0.1-2.4,0.4V35.5z"/>
	<path class="st0" d="M214.8,13.8h17.5v2.6h-14.4v19h13.4v2.6h-13.4v21.6h-3.1V13.8z"/>
	<path class="st0" d="M239.6,44.1l-4,15.4h-3.4l12-45.7h3.1l12.1,45.7h-3.5l-4-15.4L239.6,44.1z M251.4,41.5l-3.3-13
		c-0.9-3.6-1.6-6.9-2.3-10.6h-0.3c-0.6,3.8-1.4,7.2-2.2,10.6l-3.2,13L251.4,41.5z"/>
	<path class="st0" d="M296.1,37.5c-0.4-7.1-0.8-14.3-0.5-19.6h-0.4c-1.2,5.2-2.6,10.6-4.5,17l-7.4,24.6h-1.6l-7-23.3
		c-2.1-7.1-3.7-12.8-4.8-18.3h-0.3c0.2,5.6-0.1,12.4-0.5,20.1l-1,21.4h-3.2l2.6-45.7h3.9l7.1,23.5c1.9,6.1,3.2,10.3,4.3,15.5h0.2
		c1.1-5.3,2.2-9.2,4-15.5l6.9-23.5h4.1l2.8,45.7h-3.4L296.1,37.5z"/>
	<path class="st0" d="M312.4,13.8v45.7h-3.1V13.8H312.4z"/>
	<path class="st0" d="M321.6,13.8h3.6v43.1h14.9v2.6h-18.5V13.8z"/>
	<path class="st0" d="M347.8,59.5V39.1l-11.3-25.3h3.5l5.2,11.8c1.4,3.3,3.1,7.1,4.5,10.7h0.2c1.3-3.7,2.9-7.3,4.5-11l5.1-11.6h2.8
		l-11.4,25.1v20.6H347.8z"/>
	<path class="st1" d="M360.3,60.5c-2.1,0-3.8-1.6-3.8-3.7c0-0.1,0-0.2,0-0.3c-0.1-2.1,1.6-3.9,3.7-4c0.1,0,0.1,0,0.2,0
		c2-0.1,3.8,1.5,3.9,3.5c0,0.2,0,0.3,0,0.5c0.2,2-1.3,3.8-3.3,4C360.8,60.5,360.6,60.5,360.3,60.5L360.3,60.5z"/>
</g>
<g id="Ebene_3">
	<path class="st1" d="M32.8,14.3h0.3c0,0,4.7,0.2,9.4,0s6.7-0.7,10.2-1c1.9-0.1,3.8-0.3,5.7-0.6c1.2-0.5,2.5-0.8,3.8-1
		c0.9,0,1.8,0.2,2.7,0.4c0.8,0.2,0.9,0.1,2,0.4s1.8,0.9,2.1,0.9s0.8-0.2,1-0.1s0.3,0.4,0.6,0.4s0.6,0.4,0.9,0.8s0.3,0.7,0.4,0.8
		c0.4,0.6,0.9,1.3,1.2,2c0.5,0.9,0.8,1.8,1.2,2.7c0.5,1.4,0.8,2.9,1.1,4.4c0.4,2.2,0.4,2.6,0.5,3.6c0.1,0.9,0.2,1.7,0.4,2.6
		c0.2,0.9,0.3,1.8,0.4,2.7c0,0-0.6-1.3-0.7-1.6s0.6,2.9,0.7,3.2s0.2,1,0,1.1l-0.6-1.8c0,0,0.4,3,0.4,3.1c0,0-0.2-0.1-0.6-0.6
		c-0.4-0.7-0.7-1.4-0.9-2.2c0-0.2-0.2-0.7-0.2-0.5c-0.1,0.6-0.1,1.3,0,1.9c0.2,0.3,0.5,0.6,0.8,0.9c0.2,0.3,0.3,0.7,0.3,1
		c0,0.1,0.1,0.4,0,0.5c-0.2-0.5-0.4-0.9-0.6-1.3c-0.2-0.2,0,1,0,1.3c0,0.2-0.1,0.4-0.3,0.6c0-0.3-0.1-0.7-0.2-1
		c-0.2-0.4-0.3-1.1-0.5-1.4c-0.2-0.4-0.5-0.7-0.8-0.9c-0.4-0.4-0.4-0.5-0.5-1.1s0.2-3.4,0.4-4.8c0.2-2.2,0.2-4.5,0.2-6.7
		c-0.1-0.4-0.2-0.7-0.4-1.1c0,0-0.4,1.4-0.5,1.8s-1.1,2.7-1.2,3.1s-0.6,6.3-0.4,7s3.3,5.9,3.6,6.4c0.2,1,0.3,2,0.3,3
		c0,1.1,0.2,8.8,0.3,9.1c0.2,0.5,0.4,0.9,0.5,1.4c0,0.6-0.2,1.1-0.6,1.5c-0.4,0.4-1.1,0.6-1.1,0.8c0,0.4,0,0.7,0,1.1
		c0.1,0.2,0.5,1.2,0.4,1.3S73.4,60,73.2,60h-2.8c0,0-0.7-0.3-0.7-0.4s0.1-0.7,0.1-0.7c0.5-0.6,1-1.2,1.4-1.9c0-0.3-0.1-0.4-0.1-0.6
		s0-0.6,0.2-0.8s1-0.8,1.1-1.1s0-8.3,0-8.3s-1.2-2.2-1.4-2.5h-0.3c-0.1,0.2-0.2,0.4-0.2,0.7c0,0.4-0.1,1.5-0.2,1.8
		c-0.5,1.7-0.8,3.4-1.1,5.2c0,0.8-0.2,4-0.2,4.1s-0.4,0.3-0.4,0.3l-0.2,0.6l-0.4,0.4l-0.6,0.7L67,57.8L66.9,58
		c-0.1,0.1-0.2,0.3-0.2,0.4c0,0.2,0.1,0.2,0.1,0.2l0.1,1.2L66,60.3l-0.6,0.5L64.8,61H63l-1.1-0.8c0,0-0.2-0.5,0-0.6
		c0.5-0.3,0.8-0.8,1.1-1.3c0.2-0.4,0.3-1.5,0.8-1.7c0.5-0.4,1-0.8,1.3-1.4c0.1-0.4,0.3-0.8,0.3-1.3c0.1-0.4,0.2-0.6,0.4-1
		c0.2-0.8,0.4-1.6,0.6-2.4c0-0.7,0.5-3.7,0.2-4.6s-0.7-1.9-0.9-2.3c-0.2-0.7-0.4-1.3-0.8-2c-0.6-0.8-1.3-1.7-1.5-2s-2.2-4.1-2.5-4.5
		s-1-1.3-1.3-1.6c-0.1-0.1-0.3-0.1-0.4,0c-0.2,0.1-0.5,0.3-0.8,0.2c-0.7-0.2-1.3-0.6-1.7-1.1c-1.2,1.1-2.7,1.8-4.3,2.2
		c-1.9,0.5-3.9,0.8-5.8,0.9c-1.8,0.1-6.1-0.3-7.3-0.3s-3.1,0.2-3.4,0.6s-0.2,1.5-0.3,1.7s-0.6,0.9-0.6,1.1s0.1,2,0.1,2.6
		s0,1.3,0,1.6s0.4,1,0.4,1.3c0,0.4-0.1,0.9-0.2,1.3c-0.1,1-0.1,2-0.1,3c0.1,0.4,0,3.8,0.1,4s0.4,0.7,0.4,0.9s0,1.1-0.2,1.3
		s-0.8,1-1.1,1s-0.5,0.8-0.4,0.9s0.1,0.4,0.3,0.6s0.5,0.6,0.4,0.8c-0.6,0.6-1.2,1.1-1.9,1.5c-0.2,0-3.1,0.2-3.4,0.1
		s-0.7-0.4-0.7-0.6c0-0.2,0.1-0.4,0.3-0.5c0.3-0.2,0.5-0.4,0.8-0.7l-1.8,0c0,0-0.3-0.1,0-0.4s1.6-1,1.7-1.2s0.7-0.5,0.7-0.8
		c-0.1-0.4,0-0.7,0.1-1.1c0.3-0.3,1.5-1.2,1.6-1.6c0.3-1.3,0.5-2.6,0.6-3.9c-0.1-1.2-0.4-2.5-0.8-3.6c-0.1-0.5-0.1-5.1-0.2-5.5
		s-0.8-2-0.9-2.5c-0.1-0.7-0.3-1.3-0.6-2c-0.2-0.2-1.7-0.8-2-1.1s-1.1-2-1.3-2.2c-0.5-0.5-0.9-1-1.3-1.5c-0.3-0.4-0.6-0.7-1-0.9
		c-0.5-0.4-3.4-2.3-3.8-2.7s-3.5-3.8-3.8-4s-1.5-1.3-2-1.6s-0.8-0.8-1.3-0.6s-1.3,1-1.5,1.1s-0.8,0.1-0.8,0.1
		c-0.2,0.3-0.5,0.5-0.7,0.7c-0.4,0.5-0.9,0.9-1.4,1.2c-0.4,0.2-1.5,1.1-2.2,1.4c-0.6,0.3-1.2,0.7-1.7,1.2c-0.3,0.3-1.5,0.2-1.7,0.2
		c-0.4-0.1-0.8-0.2-1.1-0.5c-0.2-0.3-0.7-0.3-0.7-0.3c-0.8-0.5-1.3-1.4-1.6-2.3c-0.3-0.9-0.2-1.9,0.3-2.8C0.7,20,3.3,17,3.7,16
		c0.2-0.6,0.5-1.3,0.8-1.9c0.2-0.3,0.9-1.5,1.3-2.1c0.4-0.9,1-1.7,1.7-2.4C8.2,8.9,9,8.4,9.9,8.1c0,0,0.1-0.6-0.2-0.6S9.3,7,9.3,7
		c0.1-0.2,0.1-0.5,0-0.8C9.1,5.9,8.5,5.4,8.4,5.2c-0.3-0.5-0.5-1-0.7-1.5c0-0.3-0.1-0.7-0.3-1C7.2,2.4,7.1,2.1,7,1.7
		C6.9,1.4,6.8,1,6.8,0.7C6.8,0.2,7,0.2,7,0.2s0.1-0.4,0.4,0s0.4,0.7,0.6,0.7c0.1,0,0.4-0.2,0.4,0.1c0.1,0.4,0.2,0.8,0.4,1.2
		C8.8,2.5,9,2.9,9.3,3.2c0.4,0.4,1.9,1.4,2.2,1.8s0.5,0.8,0.6,0.7s0.1-2.5,0.2-2.2s0.5,0.8,0.5,0.9C13,4.6,13,4.9,13,5.1
		c0,0,0.3,0.1,0.3,0s0.1-1.8,0.1-1.8c0.1,0.3,0.2,0.7,0.3,1c0,0.2,0.3,0.4,0.3,0.4c0,0.4,0,0.9-0.1,1.3c0,0,0.6-1.3,0.8-1.6
		c0.2-0.3,0.5-0.6,0.8-0.8c0,0.4,0,0.9-0.1,1.3c-0.1,0.3-0.4,1-0.6,1.6L16,4.8c0.3-0.3,0.6-0.5,1-0.8c-0.1,0.2-0.2,0.4-0.2,0.6
		c-0.1,0.3,0.6-0.3,0.6-0.3s-0.6,1.1-0.5,1.2s0.6,0.2,0.7,0s0.7-0.6,0.7-0.6c0,0.2-0.1,0.4-0.1,0.6C18,5.6,17.7,6,17.7,6.2
		s0.7-0.4,0.7-0.4l-0.1,0.5L18.7,6l-0.2,1.1l0.8-0.3c0,0,0.1,0.1,0,0.5l-0.1,0.3L20.1,7c0,0,0.1,0.5,0,0.6C20,7.8,19.9,8,19.9,8.2
		c0.2-0.2,0.5-0.4,0.8-0.6c0.2-0.1,0.6-0.3,0.6-0.3s-0.2,0.2-0.2,0.3s0.4-0.1,0.4-0.1S21.1,8.2,21,8.3s0.1,0.4,0.4,0.4
		c0.3-0.1,0.6-0.2,0.9-0.2c0.2,0,0.4,0,0.6,0.1l-0.1,0.4l0.6-0.2l-0.5,0.9l0.8-0.4c0,0,0.2,0.1,0.4-0.1s-0.6,0.8-0.6,1
		c0.1,0.1,0.3,0.2,0.5,0.1c0.1-0.1-0.1,0.3,0.1,0.4s0.7-0.3,0.8-0.3s0.4-0.1,0.5-0.1s-0.1,0.4-0.1,0.4S24.5,11,24.8,11
		s0.9-0.5,0.9-0.5l0.5-0.1c0,0-1.2,0.8-1.1,1s1.1-0.3,1.3-0.3s0.8-0.3,1-0.3s0,0.1-0.1,0.3c-0.1,0.1-0.1,0.2-0.2,0.2
		c0,0,0,0.1,0.2,0.1s0.1,0.2,0.1,0.2l0.4-0.1c0.2-0.1,0.1,0.4,0.1,0.4s0,0.5-0.3,0.6l2.5,0.1c0.1,0-0.1,0.3-0.2,0.4
		c-0.3,0.1-0.5,0.2-0.8,0.3h0.1c0.3,0,0.5,0,0.8,0c0.3,0,0.7,0.1,0.8,0s-0.1,0.4-0.2,0.4s-1.1,0.3-0.8,0.4c0.8,0.1,1.6,0.2,2.4,0.3
		C32.4,14.4,32.6,14.3,32.8,14.3z"/>
</g>
</svg>
