<?xml version="1.0" encoding="utf-8"?>
<!-- Generator: Adobe Illustrator 25.2.0, SVG Export Plug-In . SVG Version: 6.00 Build 0)  -->
<svg version="1.1" id="Capa_1" xmlns="http://www.w3.org/2000/svg" xmlns:xlink="http://www.w3.org/1999/xlink" x="0px" y="0px"
	 viewBox="0 0 484 449.5" style="enable-background:new 0 0 484 449.5;" xml:space="preserve">
<style type="text/css">
	.st0{fill:#FFFFFF;}
</style>
<path class="st0" d="M459.8,295.7L420,277.6l-34.9-55.9c-9.6-15.5-26.6-24.9-44.8-24.9H309v-22h31.4c4.4,0,7.6-4,7.6-8.4v-31.2
	c5-1.3,9.6-3.9,13.2-7.6c11.5-11.6,11.5-30.3-0.1-41.9s-30.3-11.5-41.9,0s-11.6,30.3-0.1,41.9c3.6,3.4,8,6,12.8,7.6v23.7h-30.7
	c-4.4,0-8.3,3.1-8.3,7.6v30.4h-23V59.3c14.3-4,23.5-17.9,21.4-32.6C289.4,12,276.8,1,262,1c-14.8,0-27.4,11-29.4,25.7
	s7.1,28.6,21.4,32.6v137.5h-23v-41.4c0-4.4-3.9-7.6-8.3-7.6H192v-29.7c4.8-1.5,9.1-4.1,12.8-7.6c8.5-8.5,11.1-21.3,6.5-32.4
	s-15.4-18.4-27.5-18.4c-12,0-22.9,7.3-27.5,18.4s-2,23.9,6.5,32.4c3.6,3.7,8.2,6.3,13.2,7.6v37.2c0,4.4,3.2,8.4,7.6,8.4H215v33
	h-22.1c-16.5,0.1-32.1,7.8-42.1,20.9l-45,59.1l-75.2,20.6C12.4,302.5-0.1,319,0,337.8v28.5c-0.1,11,4.2,21.6,12,29.4
	c7.7,7.8,18.3,12.2,29.3,12.2h8c5.6,24.3,27.2,41.6,52.2,41.6s46.6-17.3,52.2-41.6h171.1c5.6,24.3,27.2,41.6,52.2,41.6
	s46.6-17.3,52.2-41.6h13.6c11,0,21.6-4.4,29.3-12.2c7.7-7.8,12.1-18.4,12-29.4v-32.5C484.1,317.4,474.6,302.6,459.8,295.7z
	 M330.7,97c5.3-5.3,14-5.3,19.3,0s5.3,14,0,19.3s-14,5.3-19.3,0c-2.6-2.6-4-6-4-9.7S328.2,99.5,330.7,97z M252.3,21.1
	c5.3-5.3,14-5.3,19.3,0c5.3,5.3,5.3,14,0,19.3s-14,5.3-19.3,0c-2.6-2.6-4-6-4-9.7S249.7,23.6,252.3,21.1z M173.9,80
	c5.3-5.3,14-5.3,19.3,0s5.3,14,0,19.3s-14,5.3-19.3,0c-2.6-2.6-4-6-4-9.7S171.3,82.5,173.9,80z M101.4,433.6
	c-20.7,0-37.5-16.8-37.5-37.5s16.8-37.5,37.5-37.5s37.5,16.8,37.5,37.5C139,416.8,122.2,433.6,101.4,433.6z M376.9,433.6
	c-20.7,0-37.5-16.8-37.5-37.5s16.8-37.5,37.5-37.5s37.5,16.8,37.5,37.5C414.5,416.8,397.7,433.6,376.9,433.6L376.9,433.6z
	 M468,366.3c0.1,6.8-2.5,13.3-7.3,18.1c-4.7,4.8-11.2,7.5-18,7.5h-12.4c-2.1-27-25.2-49.5-53.4-49.5c-28.2,0-51.3,22.5-53.4,49.5
	H154.8c-2.1-27-25.2-49.5-53.4-49.5S50.1,364.9,48,391.9h-6.8c-6.8,0-13.2-2.7-18-7.5s-7.4-11.3-7.3-18.1v-28.5
	c-0.1-11.6,7.6-21.7,18.7-24.8l77.9-21.3c1.7-0.5,3.2-1.5,4.2-2.9l46.6-61.3c7-9.2,17.9-14.6,29.4-14.6h147.4
	c12.8,0,24.6,6.5,31.3,17.4l36.3,57.9c0.8,1.3,2,2.4,3.5,3l41.8,19.1c9.1,4.2,14.9,13.4,14.9,23.4v32.6L468,366.3L468,366.3z"/>
</svg>
