<?xml version="1.0" encoding="utf-8"?>
<!-- Generator: Adobe Illustrator 25.2.0, SVG Export Plug-In . SVG Version: 6.00 Build 0)  -->
<svg version="1.1" id="Ebene_1" xmlns:svgjs="http://svgjs.com/svgjs"
	 xmlns="http://www.w3.org/2000/svg" xmlns:xlink="http://www.w3.org/1999/xlink" x="0px" y="0px" viewBox="0 0 512 512"
	 style="enable-background:new 0 0 512 512;" xml:space="preserve">
<style type="text/css">
	.st0{fill:#FFFFFF;}
</style>
<g>
	<g>
		<path class="st0" d="M137.3,313.2c-23.6,0-45.2-15.7-51.6-39.6l-27.6-103c-3.7-13.8-1.8-28.1,5.3-40.5
			c7.1-12.4,18.6-21.2,32.4-24.9L487.4,0.4c3.9-1,8.2,0.2,10.9,3.3c2.7,3.1,3.3,7.5,1.7,11.2l-53.3,121.7l15.6,58.2
			c4.5,17.1-5.6,34.6-22.7,39.2L151,311.4C146.4,312.6,141.8,313.2,137.3,313.2L137.3,313.2z M471.4,26.7l-370.1,99.2
			c-8.3,2.2-15.2,7.5-19.4,14.9c-4.3,7.4-5.4,16-3.2,24.3l27.6,103c4.5,17,22.1,27.2,39.2,22.7L434,213.4c5.7-1.5,9.1-7.4,7.6-13.1
			L425,138.6c-0.6-2.3-0.4-4.8,0.5-7L471.4,26.7z"/>
	</g>
	<g>
		<path class="st0" d="M82.2,219.3l-5.5-20.6l154.6-41.4c2.8-0.7,5.7-0.4,8.1,1.1l22.3,12.9l170.9-45.8l5.5,20.6L262.9,193
			c-2.7,0.7-5.7,0.4-8.1-1.1l-22.3-12.9L82.2,219.3z"/>
	</g>
	<g>
		<path class="st0" d="M451.8,197.6l-5.5-20.6l20.6-5.5c17-4.5,27.2-22.1,22.6-39.2l-23.5-87.6l20.6-5.5l23.5,87.6
			c7.6,28.4-9.3,57.7-37.7,65.3L451.8,197.6z"/>
	</g>
	<g>
		<path class="st0" d="M215.6,337.1c-14.1,0-27.1-9.4-30.9-23.7l-5.5-20.6l20.6-5.5l5.5,20.6c1.5,5.7,7.5,9.1,13.1,7.5l61.8-16.6
			c5.7-1.5,9.1-7.4,7.6-13.1l-5.5-20.6l20.6-5.5l5.5,20.6c4.6,17-5.6,34.6-22.6,39.2L223.9,336C221.1,336.7,218.4,337.1,215.6,337.1
			L215.6,337.1z"/>
	</g>
	<g>
		<path class="st0" d="M53.3,512H10.7C4.8,512,0,507.2,0,501.3V330.7c0-5.9,4.8-10.7,10.7-10.7h42.7c17.6,0,32,14.4,32,32v128
			C85.3,497.6,71,512,53.3,512z M21.3,490.7h32c5.9,0,10.7-4.8,10.7-10.7V352c0-5.9-4.8-10.7-10.7-10.7h-32V490.7z"/>
	</g>
	<g>
		<path class="st0" d="M74.7,405.3h181.5v21.3H74.7V405.3z"/>
	</g>
	<g>
		<path class="st0" d="M277.3,448c-17.6,0-32-14.4-32-32c0-17.6,14.4-32,32-32s32,14.4,32,32C309.3,433.6,295,448,277.3,448z
			 M277.3,405.3c-5.9,0-10.7,4.8-10.7,10.7c0,5.9,4.8,10.7,10.7,10.7S288,421.9,288,416C288,410.1,283.2,405.3,277.3,405.3z"/>
	</g>
	<g>
		<path class="st0" d="M240.1,320.6l20.6-5.7l21.3,77.6l-20.6,5.7L240.1,320.6z"/>
	</g>
</g>
</svg>
