<?xml version="1.0" encoding="utf-8"?>
<!-- Generator: Adobe Illustrator 25.2.0, SVG Export Plug-In . SVG Version: 6.00 Build 0)  -->
<svg version="1.1" id="Ebene_1" xmlns:svgjs="http://svgjs.com/svgjs"
	 xmlns="http://www.w3.org/2000/svg" xmlns:xlink="http://www.w3.org/1999/xlink" x="0px" y="0px" viewBox="0 0 512 512"
	 style="enable-background:new 0 0 512 512;" xml:space="preserve">
<style type="text/css">
	.st0{fill:#FFFFFF;}
</style>
<g>
	<g>
		<path class="st0" d="M405.3,512H106.7C83.1,512,64,492.9,64,469.3v-192H21.3C9.4,277.3,0,268,0,256c0-5.7,2.3-11.2,6.3-15.2
			L248.5,3.1c4.1-4.1,10.8-4.1,15,0l77.8,76.5V32c0-5.9,4.8-10.7,10.7-10.7h85.3c5.9,0,10.7,4.8,10.7,10.7v152.1l57.6,56.6
			c4.1,4.1,6.4,9.6,6.4,15.3c0,12-9.4,21.3-21.3,21.3H448v192C448,492.9,428.9,512,405.3,512z M256,25.6L21.3,255.9l53.3,0.1
			c5.9,0,10.7,4.8,10.7,10.7v202.7c0,11.8,9.6,21.3,21.3,21.3h298.7c11.8,0,21.3-9.6,21.3-21.3V266.7c0-5.9,4.8-10.7,10.7-10.7h53.3
			c0,0,0-0.1-0.1-0.1l-60.7-59.7c-2-2-3.2-4.8-3.2-7.6V42.7h-64V105c0,4.3-2.6,8.2-6.5,9.8c-3.9,1.7-8.5,0.8-11.6-2.2L256,25.6z"/>
	</g>
	<g>
		<path class="st0" d="M256,426.7c-58.8,0-106.7-47.9-106.7-106.7c0-35.9,17.7-69,47.4-88.7c4.9-3.3,11.5-1.9,14.8,3
			c3.2,4.9,1.9,11.5-3,14.8c-23.7,15.7-37.9,42.2-37.9,70.9c0,47.1,38.3,85.3,85.3,85.3s85.3-38.3,85.3-85.3
			c0-28.7-14.2-55.2-37.9-70.9c-4.9-3.2-6.3-9.9-3-14.8c3.2-4.9,9.9-6.3,14.8-3c29.7,19.6,47.4,52.8,47.4,88.7
			C362.7,378.8,314.8,426.7,256,426.7z"/>
	</g>
	<g>
		<path class="st0" d="M256,277.3c-5.9,0-10.7-4.8-10.7-10.7v-64c0-5.9,4.8-10.7,10.7-10.7s10.7,4.8,10.7,10.7v64
			C266.7,272.6,261.9,277.3,256,277.3z"/>
	</g>
</g>
</svg>
