<?xml version="1.0" encoding="utf-8"?>
<!-- Generator: Adobe Illustrator 25.2.0, SVG Export Plug-In . SVG Version: 6.00 Build 0)  -->
<svg version="1.1" id="Ebene_1" xmlns:svgjs="http://svgjs.com/svgjs"
	 xmlns="http://www.w3.org/2000/svg" xmlns:xlink="http://www.w3.org/1999/xlink" x="0px" y="0px" viewBox="0 0 512 512"
	 style="enable-background:new 0 0 512 512;" xml:space="preserve">
<style type="text/css">
	.st0{fill:#FFFFFF;}
</style>
<g>
	<path class="st0" d="M138.7,448C97.5,448,64,414.5,64,373.3s33.5-74.7,74.7-74.7s74.7,33.5,74.7,74.7S179.8,448,138.7,448z
		 M138.7,320c-29.4,0-53.3,23.9-53.3,53.3s23.9,53.3,53.3,53.3s53.3-23.9,53.3-53.3S168.1,320,138.7,320z"/>
	<path class="st0" d="M138.7,512C62.2,512,0,449.8,0,373.3s62.2-138.7,138.7-138.7c8.4,0,16.7,0.7,24.8,2.2
		c11.3,2.1,21.9-0.9,29.1-8.1L402.7,18.7c0.3-0.3,0.6-0.6,1-0.9C415.6,6.3,431.3,0,448,0c35.3,0,64,28.7,64,64
		c0,16.7-6.3,32.3-17.8,44.3c-0.3,0.3-0.6,0.7-0.9,1L283.2,319.4c-7.2,7.2-10.2,17.8-8.1,29.1c1.5,8,2.2,16.3,2.2,24.8
		C277.3,449.8,215.1,512,138.7,512L138.7,512z M138.7,256C74,256,21.3,308.6,21.3,373.3S74,490.7,138.7,490.7S256,438,256,373.3
		c0-7.1-0.6-14.2-1.9-20.9c-3.3-18,1.9-36,14-48.1L477.4,95.1c0.2-0.3,0.5-0.6,0.8-0.9c8.1-8.1,12.5-18.8,12.5-30.2
		c0-23.5-19.1-42.7-42.7-42.7c-11.4,0-22.1,4.4-30.2,12.5c-0.3,0.3-0.6,0.5-0.9,0.8L207.7,243.9c-12.1,12.1-30.1,17.3-48.1,14
		C152.8,256.6,145.7,256,138.7,256L138.7,256z"/>
	<path class="st0" d="M183.9,338.8c-2.7,0-5.5-1-7.6-3.1c-4.2-4.2-4.2-10.9,0-15.1l61.4-61.4c4.2-4.2,10.9-4.2,15.1,0
		s4.2,10.9,0,15.1l-61.4,61.4C189.4,337.7,186.6,338.8,183.9,338.8z"/>
	<path class="st0" d="M336,261.3c-2.7,0-5.5-1-7.6-3.1l-26.7-26.7c-4.2-4.2-4.2-10.9,0-15.1s10.9-4.2,15.1,0l26.7,26.7
		c4.2,4.2,4.2,10.9,0,15.1C341.5,260.3,338.7,261.3,336,261.3L336,261.3z"/>
	<path class="st0" d="M400,197.3c-2.7,0-5.5-1-7.6-3.1l-26.7-26.7c-4.2-4.2-4.2-10.9,0-15.1s10.9-4.2,15.1,0l26.7,26.7
		c4.2,4.2,4.2,10.9,0,15.1C405.5,196.3,402.7,197.3,400,197.3z"/>
	<path class="st0" d="M464,133.3c-2.7,0-5.5-1-7.6-3.1l-26.7-26.7c-4.2-4.2-4.2-10.9,0-15.1c4.2-4.2,10.9-4.2,15.1,0l26.7,26.7
		c4.2,4.2,4.2,10.9,0,15.1C469.5,132.3,466.7,133.3,464,133.3z"/>
</g>
</svg>
