<?xml version="1.0" encoding="utf-8"?>
<!-- Generator: Adobe Illustrator 25.2.0, SVG Export Plug-In . SVG Version: 6.00 Build 0)  -->
<svg version="1.1" id="Ebene_1" xmlns:svgjs="http://svgjs.com/svgjs"
	 xmlns="http://www.w3.org/2000/svg" xmlns:xlink="http://www.w3.org/1999/xlink" x="0px" y="0px" viewBox="0 0 512 512"
	 style="enable-background:new 0 0 512 512;" xml:space="preserve">
<style type="text/css">
	.st0{fill:#FFFFFF;}
</style>
<g>
	<g>
		<path class="st0" d="M458.7,512H53.3C23.9,512,0,488.1,0,458.7V96c0-29.4,23.9-53.3,53.3-53.3h405.3c29.4,0,53.3,23.9,53.3,53.3
			v362.7C512,488.1,488.1,512,458.7,512z M53.3,64c-17.6,0-32,14.4-32,32v362.7c0,17.6,14.4,32,32,32h405.3c17.6,0,32-14.4,32-32V96
			c0-17.6-14.4-32-32-32H53.3z"/>
	</g>
	<g>
		<path class="st0" d="M501.3,192H10.7C4.8,192,0,187.2,0,181.3s4.8-10.7,10.7-10.7h490.7c5.9,0,10.7,4.8,10.7,10.7
			S507.2,192,501.3,192z"/>
	</g>
	<g>
		<path class="st0" d="M117.3,106.7c-5.9,0-10.7-4.8-10.7-10.7V10.7c0-5.9,4.8-10.7,10.7-10.7S128,4.8,128,10.7V96
			C128,101.9,123.2,106.7,117.3,106.7z"/>
	</g>
	<g>
		<path class="st0" d="M394.7,106.7c-5.9,0-10.7-4.8-10.7-10.7V10.7C384,4.8,388.8,0,394.7,0c5.9,0,10.7,4.8,10.7,10.7V96
			C405.3,101.9,400.6,106.7,394.7,106.7z"/>
	</g>
</g>
</svg>
