<?xml version="1.0" encoding="utf-8"?>
<!-- Generator: Adobe Illustrator 25.2.0, SVG Export Plug-In . SVG Version: 6.00 Build 0)  -->
<svg version="1.1" id="Ebene_1" xmlns:svgjs="http://svgjs.com/svgjs"
	 xmlns="http://www.w3.org/2000/svg" xmlns:xlink="http://www.w3.org/1999/xlink" x="0px" y="0px" viewBox="0 0 512 512"
	 style="enable-background:new 0 0 512 512;" xml:space="preserve">
<style type="text/css">
	.st0{fill:#FFFFFF;}
</style>
<g>
	<g>
		<g>
			<g>
				<path class="st0" d="M446.2,324.5C488.1,294,512,250,512,202.7c0-88.2-83.7-160-186.7-160c-83.1,0-154.9,45.8-178.7,114
					c-1.9,5.6,1,11.6,6.5,13.6c5.6,1.9,11.6-1,13.6-6.5C187.3,105,252.5,64,325.3,64c91.2,0,165.3,62.2,165.3,138.7
					c0,42.9-23.3,82.8-64,109.4c-4.5,3-6.1,8.9-3.7,13.7l10.4,20.9l-30.2-17.3c-2.8-1.6-6.1-1.8-9.1-0.7
					c-14.6,5.6-30.4,9.5-46.9,11.3c-5.8,0.7-10,6-9.4,11.8s5.7,10.1,11.8,9.4c16.5-1.9,32.4-5.5,47.3-10.8l56.4,32.3
					c1.7,1,3.5,1.4,5.3,1.4c2.7,0,5.3-1,7.3-2.9c3.4-3.2,4.3-8.3,2.2-12.5L446.2,324.5z"/>
				<path class="st0" d="M160,192C71.8,192,0,249.4,0,320c0,38,21.5,74.3,57.9,98.5l-14.5,36.2c-1.6,4.1-0.6,8.8,2.7,11.8
					c2,1.9,4.6,2.8,7.2,2.8c1.6,0,3.3-0.4,4.8-1.1l52.9-26.5c16,4.1,32.5,6.2,49,6.2c88.2,0,160-57.4,160-128S248.2,192,160,192z
					 M160,426.7c-15.9,0-31.8-2.2-47.3-6.5c-2.6-0.7-5.3-0.5-7.7,0.7l-31.4,15.7l7.4-18.5c2-4.9,0-10.5-4.5-13.2
					c-35.1-20.5-55.2-51.4-55.2-84.9c0-58.8,62.2-106.7,138.7-106.7S298.6,261.2,298.6,320S236.4,426.7,160,426.7z"/>
			</g>
		</g>
	</g>
</g>
</svg>
